<?xml version="1.0" encoding="UTF-8" standalone="no"?><!DOCTYPE svg PUBLIC "-//W3C//DTD SVG 1.1//EN" "http://www.w3.org/Graphics/SVG/1.1/DTD/svg11.dtd"><!-- Generated by graphviz version 2.40.1 (20161225.0304)
 --><!-- Title: G Pages: 1 --><svg xmlns="http://www.w3.org/2000/svg" xmlns:xlink="http://www.w3.org/1999/xlink" width="356pt" height="135pt" viewBox="0.00 0.00 356.00 134.80">
<g id="graph0" class="graph" transform="scale(1 1) rotate(0) translate(4 130.8)">
<title>G</title>
<polygon fill="#ffffff" stroke="transparent" points="-4,4 -4,-130.8 351.9962,-130.8 351.9962,4 -4,4"/>
<!-- node1 -->
<g id="node1" class="node">
<title>node1</title>
<polygon fill="none" stroke="#000000" points="20.2419,-90.3 20.2419,-126.3 125.7581,-126.3 125.7581,-90.3 20.2419,-90.3"/>
<text text-anchor="middle" x="36.7945" y="-104.1" font-family="Times,serif" font-size="14.00" fill="#000000">len</text>
<polyline fill="none" stroke="#000000" points="53.3471,-90.3 53.3471,-126.3 "/>
<text text-anchor="middle" x="72.2223" y="-104.1" font-family="Times,serif" font-size="14.00" fill="#000000">free</text>
<polyline fill="none" stroke="#000000" points="91.0975,-90.3 91.0975,-126.3 "/>
<text text-anchor="middle" x="108.4278" y="-104.1" font-family="Times,serif" font-size="14.00" fill="#000000">buf</text>
</g>
<!-- len -->
<g id="node2" class="node">
<title>len</title>
<ellipse fill="none" stroke="#000000" cx="18" cy="-18.5" rx="18" ry="18"/>
<text text-anchor="middle" x="18" y="-14.3" font-family="Times,serif" font-size="14.00" fill="#000000">5</text>
</g>
<!-- node1&#45;&gt;len -->
<g id="edge1" class="edge">
<title>node1:f1-&gt;len</title>
<path fill="none" stroke="#000000" d="M37,-90.3C37,-74.8872 32.8577,-58.2141 28.4414,-44.8178"/>
<polygon fill="#000000" stroke="#000000" points="31.7059,-43.5507 25.0749,-35.2875 25.1055,-45.8823 31.7059,-43.5507"/>
<text text-anchor="middle" x="43.3906" y="-59.2" font-family="Times,serif" font-size="14.00" fill="#000000">int</text>
</g>
<!-- free -->
<g id="node3" class="node">
<title>free</title>
<ellipse fill="none" stroke="#000000" cx="72" cy="-18.5" rx="18" ry="18"/>
<text text-anchor="middle" x="72" y="-14.3" font-family="Times,serif" font-size="14.00" fill="#000000">3</text>
</g>
<!-- node1&#45;&gt;free -->
<g id="edge2" class="edge">
<title>node1:f2-&gt;free</title>
<path fill="none" stroke="#000000" d="M72,-90.3C72,-76.0818 72,-60.2798 72,-47.128"/>
<polygon fill="#000000" stroke="#000000" points="75.5001,-46.7967 72,-36.7968 68.5001,-46.7968 75.5001,-46.7967"/>
<text text-anchor="middle" x="79.3906" y="-59.2" font-family="Times,serif" font-size="14.00" fill="#000000">int</text>
</g>
<!-- buf -->
<g id="node4" class="node">
<title>buf</title>
<polygon fill="none" stroke="#000000" points="108.0038,-.5 108.0038,-36.5 347.9962,-36.5 347.9962,-.5 108.0038,-.5"/>
<text text-anchor="middle" x="124.1644" y="-14.3" font-family="Times,serif" font-size="14.00" fill="#000000">'h'</text>
<polyline fill="none" stroke="#000000" points="140.325,-.5 140.325,-36.5 "/>
<text text-anchor="middle" x="156.0929" y="-14.3" font-family="Times,serif" font-size="14.00" fill="#000000">'e'</text>
<polyline fill="none" stroke="#000000" points="171.8608,-.5 171.8608,-36.5 "/>
<text text-anchor="middle" x="186.4667" y="-14.3" font-family="Times,serif" font-size="14.00" fill="#000000">'l'</text>
<polyline fill="none" stroke="#000000" points="201.0726,-.5 201.0726,-36.5 "/>
<text text-anchor="middle" x="215.6785" y="-14.3" font-family="Times,serif" font-size="14.00" fill="#000000">'l'</text>
<polyline fill="none" stroke="#000000" points="230.2844,-.5 230.2844,-36.5 "/>
<text text-anchor="middle" x="241.7844" y="-14.3" font-family="Times,serif" font-size="14.00" fill="#000000">o</text>
<polyline fill="none" stroke="#000000" points="253.2844,-.5 253.2844,-36.5 "/>
<text text-anchor="middle" x="271.3903" y="-14.3" font-family="Times,serif" font-size="14.00" fill="#000000">'\0'</text>
<polyline fill="none" stroke="#000000" points="289.4962,-.5 289.4962,-36.5 "/>
<text text-anchor="middle" x="299.2462" y="-14.3" font-family="Times,serif" font-size="14.00" fill="#000000"> </text>
<polyline fill="none" stroke="#000000" points="308.9962,-.5 308.9962,-36.5 "/>
<text text-anchor="middle" x="318.7462" y="-14.3" font-family="Times,serif" font-size="14.00" fill="#000000"> </text>
<polyline fill="none" stroke="#000000" points="328.4962,-.5 328.4962,-36.5 "/>
<text text-anchor="middle" x="338.2462" y="-14.3" font-family="Times,serif" font-size="14.00" fill="#000000"> </text>
</g>
<!-- node1&#45;&gt;buf -->
<g id="edge3" class="edge">
<title>node1:f3-&gt;buf</title>
<path fill="none" stroke="#000000" d="M126,-108.3C164.5787,-108.3 195.4883,-71.6634 212.7866,-45.1922"/>
<polygon fill="#000000" stroke="#000000" points="215.7809,-47.0052 218.1225,-36.6724 209.8483,-43.2897 215.7809,-47.0052"/>
<text text-anchor="middle" x="221.7055" y="-59.2" font-family="Times,serif" font-size="14.00" fill="#000000">[]char</text>
</g>
</g>
</svg>